# AST/ASF file generated using VICON BodyLanguage
# -----------------------------------------------
:version 1.10
:name VICON
:units
  mass 1.0
  length 0.45
  angle deg
:documentation
   .ast/.asf automatically generated from VICON data using
   VICON BodyBuilder and BodyLanguage model FoxedUp or BRILLIANT.MOD
:root
   order TX TY TZ RX RY RZ
   axis XYZ
   position 0 0 0  
   orientation 0 0 0 
:bonedata
  begin
     id 1 
     name lhipjoint
     direction 0.645893 -0.654526 0.392961 
     length 2.38111 
     axis 0 0 0  XYZ
  end
  begin
     id 2 
     name lfemur
     direction 0.34202 -0.939693 0  
     length 6.6822  
     axis 0 0 20  XYZ
    dof rx ry rz
    limits (-160.0 20.0)
           (-70.0 70.0)
           (-60.0 70.0)
  end
  begin
     id 3 
     name ltibia
     direction 0.34202 -0.939693 0   
     length 6.93904   
     axis 0 0 20   XYZ
    dof rx
    limits (-10.0 170.0)
  end
  begin
     id 4 
     name lfoot
     direction 0.0694967 -0.190941 0.979138   
     length 2.13616   
     axis -90 7.62852e-016 20   XYZ
    dof rx rz
    limits (-45.0 90.0)
           (-70.0 20.0)
  end
  begin
     id 5 
     name ltoes
     direction 1.535e-011 -4.2202e-011 1   
     length 1.07536   
     axis -90 7.62852e-016 20   XYZ
    dof rx
    limits (-90.0 20.0)
  end
  begin
     id 6 
     name rhipjoint
     direction -0.700219 -0.612087 0.367481   
     length 2.54621  
     axis 0 0 0  XYZ 
  end
  begin
     id 7 
     name rfemur
     direction -0.34202 -0.939693 0   
     length 6.55353   
     axis 0 0 -20   XYZ
    dof rx ry rz
    limits (-160.0 20.0)
           (-70.0 70.0)
           (-70.0 60.0)
  end
  begin
     id 8 
     name rtibia
     direction -0.34202 -0.939693 0   
     length 6.8736   
     axis 0 0 -20   XYZ
    dof rx
    limits (-10.0 170.0)
 end
 begin
     id 9 
     name rfoot
     direction -0.0679995 -0.186827 0.980037   
     length 2.1218  
     axis -90 -7.62852e-016 -20   XYZ
    dof rx rz
    limits (-45.0 90.0)
           (-20.0 70.0)
  end
  begin
     id 10 
     name rtoes
     direction -1.53589e-011 -4.21772e-011 1   
     length 1.06864   
     axis -90 -7.62852e-016 -20   XYZ
    dof rx
    limits (-90.0 20.0)
  end
  begin
     id 11 
     name lowerback
     direction -0.0416607 0.996347 -0.0745409   
     length 2.12205   
     axis 0 0 0   XYZ
    dof rx ry rz
    limits (-20.0 45.0)
           (-30.0 30.0)
           (-30.0 30.0)
  end
  begin
     id 12 
     name upperback
     direction -0.000153993 0.999276 -0.0380568   
     length 2.12759   
     axis 0 0 0   XYZ
    dof rx ry rz
    limits (-20.0 45.0)
           (-30.0 30.0)
           (-30.0 30.0)
  end
  begin
     id 13 
     name thorax
     direction 0.0187671 0.999821 -0.00241421   
     length 2.13704   
     axis 0 0 0   XYZ
    dof rx ry rz
    limits (-20.0 45.0)
           (-30.0 30.0)
           (-30.0 30.0)
  end
  begin
     id 14 
     name lowerneck
     direction 0.0268157 0.964865 0.261374   
     length 1.65253   
     axis 0 0 0   XYZ
    dof rx ry rz
    limits (-20.0 45.0)
           (-30.0 30.0)
           (-30.0 30.0)
  end
  begin
     id 15 
     name upperneck
     direction 0.00263774 0.939908 -0.341418   
     length 1.72375   
     axis 0 0 0   XYZ
    dof rx ry rz
    limits (-20.0 45.0)
           (-30.0 30.0)
           (-30.0 30.0)
  end
  begin
     id 16
     name head
     direction -0.00526001 0.989001 -0.147818  
     length 1.74878  
     axis 0 0 0   XYZ
    dof rx ry rz
    limits (-20.0 45.0)
           (-30.0 30.0)
           (-30.0 30.0)
  end
  begin
     id 17 
     name lclavicle
     direction 0.881214 0.461162 -0.103884  
     length 3.25108  
     axis 0 0 0   XYZ
    dof ry rz
    limits (-20.0 10.0)
           (0.0 20.0)
  end
  begin
     id 18 
     name lhumerus
     direction 1 -4.4899e-011 3.38092e-027   
     length 4.87408   
     axis 180 -30 -90   XYZ
    dof rx ry rz
    limits (-60.0 90.0)
           (-90.0 90.0)
           (-90.0 90.0)
  end
  begin
     id 19
     name lradius
     direction 1 -4.48931e-011 9.96288e-027   
     length 2.76729   
     axis 180 -30 -90   XYZ
    dof rx
    limits (-10.0 170.0)
  end
  begin
     id 20
     name lwrist
     direction 1 -4.4896e-011 1.50617e-026   
     length 1.38364   
     axis -9.31234e-015 90 90   XYZ
    dof ry
    limits (-180.0 0.0)
 end
  begin
     id 21 
     name lhand
     direction 1 -4.49038e-011 3.01286e-026   
     length 0.98922   
     axis -1.92217e-014 90 90   XYZ
    dof rx rz
    limits (-90.0 90.0)
           (-45.0 45.0)
  end
  begin
     id 22 
     name lfingers
     direction 1 -4.49051e-011 6.02588e-026   
     length 0.797535   
     axis -3.84436e-014 90 90   XYZ
    dof rx
    limits (0.0 90.0)
  end
  begin
     id 23
     name lthumb
     direction 0.707107 -6.34901e-011 0.707107   
     length 1.14511   
     axis -90 45 2.19363e-014   XYZ
    dof rx rz
    limits (-45.0 45.0)
           (-45.0 45.0)
  end
  begin
     id 24 
     name rclavicle
     direction -0.893894 0.441652 -0.0767889   
     length 3.29361  
     axis 0 0 0   XYZ 
    dof ry rz
    limits (-10.0 20.0)
           (-20.0 0.0)
  end
  begin
     id 25 
     name rhumerus
     direction -1 -4.48945e-011 8.0491e-028  
     length 4.71404   
     axis 180 30 90   XYZ
    dof rx ry rz
    limits (-90.0 60.0)
           (-90.0 90.0)
           (-90.0 90.0)
  end
  begin
     id 26 
     name rradius
     direction -1 -4.48986e-011 9.27795e-027   
     length 2.83468   
     axis 180 30 90   XYZ
    dof rx
    limits (-10.0 170.0)
  end
  begin
     id 27 
     name rwrist
     direction -1 -4.49029e-011 1.5064e-026   
     length 1.41734   
     axis -9.31234e-015 -90 -90   XYZ
    dof ry
    limits (-180.0 0.0)
  end
  begin
     id 28
     name rhand
     direction -1 -4.48857e-011 3.01165e-026   
     length 0.868195   
     axis -1.92217e-014 -90 -90   XYZ
    dof rx rz
    limits (-90.0 90.0)
           (-45.0 45.0)
  end
  begin
     id 29
     name rfingers
     direction -1 -4.49048e-011 6.02585e-026   
     length 0.699961   
     axis -3.84436e-014 -90 -90   XYZ
    dof rx
    limits (0.0 90.0)
  end
  begin
     id 30
     name rthumb
     direction -0.707107 -6.34854e-011 0.707107   
     length 1.00501   
     axis -90 -45 -2.19363e-014   XYZ
    dof rx rz
    limits (-45.0 45.0)
           (-45.0 45.0)
  end
:hierarchy
  begin
    root lhipjoint rhipjoint lowerback
    lhipjoint lfemur
    lfemur ltibia
    ltibia lfoot
    lfoot ltoes
    rhipjoint rfemur
    rfemur rtibia
    rtibia rfoot
    rfoot rtoes
    lowerback upperback
    upperback thorax
    thorax lowerneck lclavicle rclavicle
    lowerneck upperneck
    upperneck head
    lclavicle lhumerus
    lhumerus lradius
    lradius lwrist
    lwrist lhand lthumb
    lhand lfingers
    rclavicle rhumerus
    rhumerus rradius
    rradius rwrist
    rwrist rhand rthumb
    rhand rfingers
  end

#!OML:ASF H:\ManfredObstacles\Project 1\Capture day 2\Session 1\male.ASF
:FULLY-SPECIFIED
:DEGREES
65
root 1.26895 15.9354 22.039 -176.275 -8.5039 -185.8
lowerback -2.62886 -5.05111 -8.80495
upperback 3.02799 -6.42378 -0.276588
thorax 5.59048 -3.55343 4.07371
lowerneck -27.0699 -2.14938 4.57118
upperneck 48.1985 3.08091 -2.49242
head 29.6771 3.71116 -0.485064
rclavicle 8.08681e-014 -4.47266e-016
rhumerus -60.8272 -15.1779 -56.0482
rradius 29.7646
rwrist 27.4534
rhand -4.47914 -5.37891
rfingers 7.12502
rthumb 21.2938 -34.2291
lclavicle 8.08681e-014 -4.47266e-016
lhumerus -21.9172 -31.3898 91.7297
lradius 73.9671
lwrist -27.9561
lhand -11.0036 1.4816
lfingers 7.12502
lthumb 15.017 30.917
rfemur -34.6625 3.15599 11.0604
rtibia 24.3157
rfoot 20.6632 -17.4108
rtoes -16.7209
lfemur 12.4505 -6.15347 -27.6113
ltibia 16.0219
lfoot 6.52773 6.06461
ltoes -15.558
66
root 1.29397 15.8895 21.8552 -176.037 -8.73214 -185.821
lowerback -2.96937 -5.11942 -8.80062
upperback 2.90909 -6.47696 -0.242789
thorax 5.67002 -3.57409 4.0759
lowerneck -27.0493 -2.18548 4.53506
upperneck 48.2398 3.07877 -2.47227
head 29.7319 3.71864 -0.457143
rclavicle -1.09332e-015 2.13197e-014
rhumerus -61.0015 -15.5072 -55.6599
rradius 29.4884
rwrist 27.9393
rhand -4.45212 -5.36136
rfingers 7.12502
rthumb 21.3197 -34.2086
lclavicle -1.09332e-015 2.13197e-014
lhumerus -22.1807 -31.1051 92.036
lradius 72.965
lwrist -28.3012
lhand -10.6649 1.37071
lfingers 7.12502
lthumb 15.3433 30.7815
rfemur -34.2601 2.78233 11.4506
rtibia 24.7106
rfoot 19.1313 -16.6587
rtoes -15.5702
lfemur 12.4805 -6.2721 -27.4356
ltibia 16.8192
lfoot 6.38518 6.15091
ltoes -15.7786
67
root 1.31936 15.8425 21.6716 -175.798 -8.88229 -185.831
lowerback -3.31228 -5.15837 -8.78001
upperback 2.78051 -6.49211 -0.212168
thorax 5.73263 -3.57452 4.0705
lowerneck -27.0185 -2.23224 4.47665
upperneck 48.2926 3.07069 -2.42985
head 29.7962 3.72416 -0.409961
rclavicle 5.47403e-014 1.93815e-014
rhumerus -61.1538 -15.891 -55.2687
rradius 29.2199
rwrist 28.4378
rhand -4.44192 -5.33768
rfingers 7.12502
rthumb 21.3295 -34.1838
lclavicle 5.47403e-014 1.93815e-014
lhumerus -22.4996 -30.7684 92.3564
lradius 71.9324
lwrist -28.599
lhand -10.2955 1.2533
lfingers 7.12502
lthumb 15.699 30.6365
rfemur -33.9042 2.39229 11.9159
rtibia 25.2304
rfoot 17.0147 -16.118
rtoes -14.2263
lfemur 12.4674 -6.37973 -27.2617
ltibia 17.6895
lfoot 6.30029 6.25207
ltoes -16.0121
68
root 1.34484 15.796 21.4891 -175.569 -8.94934 -185.818
lowerback -3.64043 -5.1642 -8.72829
upperback 2.65363 -6.46702 -0.186419
thorax 5.77829 -3.55374 4.04932
lowerneck -27.0139 -2.27092 4.44124
upperneck 48.3367 3.05677 -2.39757
head 29.8654 3.72965 -0.376845
rclavicle -7.33391e-014 -1.19271e-015
rhumerus -61.2586 -16.3427 -54.8876
rradius 28.9488
rwrist 28.9655
rhand -4.43999 -5.31738
rfingers 7.12502
rthumb 21.3314 -34.1633
lclavicle -7.33391e-014 -1.19271e-015
lhumerus -22.855 -30.3871 92.6768
lradius 70.8761
lwrist -28.8107
lhand -9.87406 1.16513
lfingers 7.12502
lthumb 16.1049 30.5159
rfemur -33.6054 2.01736 12.4476
rtibia 25.8398
rfoot 14.5791 -15.9018
rtoes -12.7599
lfemur 12.4231 -6.46498 -27.0853
ltibia 18.6204
lfoot 6.30692 6.35828
ltoes -16.1982
69
root 1.37022 15.7522 21.309 -175.37 -8.92934 -185.759
lowerback -3.93593 -5.131 -8.62236
upperback 2.5484 -6.39704 -0.161673
thorax 5.81517 -3.50985 4.0052
lowerneck -27.0476 -2.31174 4.38331
upperneck 48.3726 3.02449 -2.34234
head 29.9415 3.7229 -0.330523
rclavicle -2.08972e-014 1.59028e-014
rhumerus -61.2738 -16.8801 -54.5377
rradius 28.655
rwrist 29.5105
rhand -4.44664 -5.30308
rfingers 7.12502
rthumb 21.325 -34.1498
lclavicle -2.08972e-014 1.59028e-014
lhumerus -23.1915 -29.9621 92.9616
lradius 69.7947
lwrist -28.9884
lhand -9.3613 1.13032
lfingers 7.12502
lthumb 16.5986 30.4405
rfemur -33.3647 1.68005 13.058
rtibia 26.5085
rfoot 12.1103 -15.9781
rtoes -11.296
lfemur 12.3486 -6.50696 -26.8843
ltibia 19.6159
lfoot 6.4262 6.43978
ltoes -16.356
70
root 1.39517 15.713 21.1326 -175.213 -8.82532 -185.642
lowerback -4.14731 -5.0677 -8.45604
upperback 2.42967 -6.30042 -0.128051
thorax 5.77996 -3.44845 3.94979
lowerneck -27.0497 -2.34323 4.34426
upperneck 48.4016 3.00849 -2.3094
head 29.9886 3.72293 -0.298878
rclavicle 9.59136e-015 -5.46658e-015
rhumerus -61.2191 -17.4316 -54.2215
rradius 28.3285
rwrist 30.0856
rhand -4.45835 -5.32071
rfingers 7.12502
rthumb 21.3138 -34.1687
lclavicle 9.59136e-015 -5.46658e-015
lhumerus -23.5845 -29.4348 93.2476
lradius 68.6471
lwrist -29.2656
lhand -8.84269 1.12513
lfingers 7.12502
lthumb 17.0979 30.3928
rfemur -33.1792 1.41425 13.7309
rtibia 27.208
rfoot 9.91028 -16.23
rtoes -9.97625
lfemur 12.2317 -6.49606 -26.6501
ltibia 20.705
lfoot 6.67893 6.49077
ltoes -16.4326
